<?xml version="1.0" standalone="no"?>
<!DOCTYPE svg PUBLIC "-//W3C//DTD SVG 20010904//EN"
 "http://www.w3.org/TR/2001/REC-SVG-20010904/DTD/svg10.dtd">
<svg version="1.0" xmlns="http://www.w3.org/2000/svg"
 width="1280.000000pt" height="1280.000000pt" viewBox="0 0 1280.000000 1280.000000"
 preserveAspectRatio="xMidYMid meet">
<metadata>
Created by potrace 1.16, written by Peter Selinger 2001-2019
</metadata>
<g transform="translate(0.000000,1280.000000) scale(0.100000,-0.100000)"
fill="#000000" stroke="none">
<path d="M4530 10904 c-761 -147 -1423 -350 -2108 -644 -123 -53 -215 -99
-228 -113 -30 -35 -256 -388 -366 -572 -771 -1291 -1225 -2582 -1398 -3970
-87 -705 -100 -1396 -39 -2169 l12 -149 81 -59 c115 -85 466 -318 631 -419
541 -331 1086 -601 1665 -824 199 -76 666 -235 692 -235 21 0 83 82 235 310
195 294 433 708 433 755 0 17 -6 20 -215 105 -189 77 -456 206 -646 312 l-147
81 72 56 c39 30 88 69 109 87 l38 32 102 -45 c1054 -464 2223 -683 3317 -623
834 46 1577 212 2355 525 99 40 214 89 256 108 l77 35 85 -68 c47 -37 98 -76
112 -87 l26 -19 -148 -81 c-81 -45 -231 -122 -333 -171 -157 -76 -253 -118
-497 -218 -20 -8 -33 -20 -33 -31 0 -44 270 -510 451 -778 156 -232 197 -285
217 -285 27 0 489 157 687 233 676 259 1296 576 1910 975 166 108 424 288 452
316 19 19 23 41 37 211 30 362 39 630 33 1050 -6 417 -12 526 -47 880 -157
1565 -692 3050 -1620 4493 -170 264 -153 247 -320 321 -578 254 -1220 466
-1825 600 -206 46 -489 101 -522 101 -16 0 -31 -13 -49 -42 -36 -56 -193 -370
-244 -488 -23 -52 -45 -98 -49 -103 -4 -4 -57 -1 -117 8 -392 54 -791 79
-1264 78 -469 0 -852 -24 -1244 -78 -60 -9 -113 -12 -117 -8 -4 5 -30 60 -59
123 -57 126 -208 426 -240 478 -24 39 -35 40 -210 6z m20 -3835 c397 -63 735
-367 863 -775 61 -191 77 -434 43 -626 -67 -372 -284 -688 -586 -851 -265
-144 -586 -156 -865 -32 -275 122 -511 399 -609 711 -101 325 -73 683 77 979
211 420 651 663 1077 594z m4010 0 c397 -63 729 -361 864 -776 41 -127 59
-245 59 -393 -1 -161 -20 -285 -69 -430 -125 -373 -402 -646 -754 -742 -72
-20 -109 -23 -245 -23 -137 0 -171 3 -239 23 -425 123 -720 464 -812 938 -47
244 -1 572 113 799 216 429 653 673 1083 604z"/>
</g>
</svg>
